<?xml version="1.0" encoding="utf-8"?>
<!-- Generator: Adobe Illustrator 24.1.2, SVG Export Plug-In . SVG Version: 6.00 Build 0)  -->
<svg version="1.1" id="Layer_2" xmlns="http://www.w3.org/2000/svg" xmlns:xlink="http://www.w3.org/1999/xlink" x="0px" y="0px"
	 viewBox="0 0 103.2 110.4" style="enable-background:new 0 0 103.2 110.4;" xml:space="preserve">
<style type="text/css">
	.st0{fill:none;stroke:#FFFFFF;stroke-width:3;stroke-miterlimit:10;}
	.st1{fill:#FFFFFF;}
</style>
<path class="st0" d="M95.7,108.9H7.5c-3.3,0-6-2.7-6-6V7.5c0-3.3,2.7-6,6-6h88.2c3.3,0,6,2.7,6,6v95.4
	C101.7,106.2,99,108.9,95.7,108.9z"/>
<g>
	<path class="st1" d="M38.1,42.5v5.7h-14V53h13.2v5.7H24.1v5.5h14v5.7H17.9V42.5H38.1z"/>
	<path class="st1" d="M47.1,49.9c0,1.4,1.2,2.3,3.1,2.8l3.6,0.8c4.3,0.9,9.6,2.3,9.6,8s-5.6,9-11.1,9c-6.8,0-11.2-3.5-12.1-9.4h6.2
		c0.7,2.9,2.9,4.2,6.1,4.2c2.1,0,4.5-0.7,4.5-3c0-1.8-2-2.6-4.9-3.3l-3.2-0.7c-4.3-0.9-8.2-3.1-8.2-8c0-5.6,5.8-8.2,10.9-8.2
		c5.2,0,10.1,2.3,11,8.4h-6.1c-0.6-2-2.5-3.2-5.2-3.2C48.9,47.3,47.1,48.2,47.1,49.9z"/>
	<path class="st1" d="M78.2,70.4C70,70.4,65,65,65,56.2c0-8.7,5.2-14.1,13.4-14.1c6.6,0,11.3,4.5,12.2,10.7h-6.1
		c-0.7-3.7-3.3-5.4-6.3-5.4c-3.7,0-6.6,3.2-6.6,8.8c0,5.8,2.9,8.9,6.7,8.9c2.7,0,5.7-1.2,6.4-5.4h6.1C89.9,66.1,84.9,70.4,78.2,70.4
		z"/>
</g>
</svg>
